<svg xmlns="http://www.w3.org/2000/svg" id="Layer_1" viewBox="0 0 311.81 158.74"><defs><style>.cls-1{fill:#6d2463;}.cls-1,.cls-2{stroke-width:0px;}.cls-2{fill:#fff;}</style></defs><path class="cls-1" d="M296.11,135.78c0,6.36-5.15,11.51-11.5,11.51H25.03c-6.35,0-11.5-5.15-11.5-11.51V25.59c0-6.36,5.15-11.51,11.5-11.51h259.58c6.35,0,11.5,5.15,11.5,11.51v110.19Z"/><path class="cls-2" d="M129.35,104.77c-4.48,0-7.38,3.27-7.38,8.11s2.86,8.05,7.15,8.05,7.35-3.21,7.35-8.05-2.83-8.11-7.13-8.11ZM129.29,118.67c-2.64,0-4.61-2.36-4.61-5.88s1.75-5.79,4.52-5.79,4.58,2.38,4.58,5.91-1.62,5.76-4.49,5.76ZM222.66,99.37c-.92,0-1.65.73-1.65,1.65s.73,1.66,1.65,1.66,1.65-.73,1.65-1.66-.73-1.65-1.65-1.65ZM114.38,118.45c-4.68,0-7.6-3.38-7.6-8.56s3.5-8.46,7.83-8.46c2.99,0,4.86,1.27,5.12,1.43l1.24-1.97c-.25-.25-2.32-1.97-6.52-1.97-5.85,0-10.59,4.14-10.59,11.23s4.49,10.84,10.18,10.84c4.3,0,6.9-1.97,7.12-2.22l-1.24-1.97c-.23.13-2.48,1.65-5.53,1.65ZM234.3,104.77c-4.48,0-7.38,3.27-7.38,8.11s2.86,8.05,7.15,8.05,7.34-3.21,7.34-8.05-2.83-8.11-7.12-8.11ZM234.24,118.67c-2.64,0-4.61-2.36-4.61-5.88s1.75-5.79,4.51-5.79,4.58,2.38,4.58,5.91-1.62,5.76-4.49,5.76ZM251.48,104.77c-2.61,0-4.55,1.4-4.8,1.56v-1.15h-2.42v15.4h2.7v-12.18c.13-.1,2.07-1.34,4.04-1.34.95,0,1.75.35,2.16.77.79.8.83,2.07.83,4.01v8.75h2.7v-8.94c0-2.48-.06-4.07-1.53-5.54-.48-.47-1.56-1.33-3.69-1.33ZM155.11,104.77c-2.32,0-4.07.98-5.34,1.78-.7-.95-1.85-1.78-3.79-1.78-2.42,0-4.52,1.43-4.71,1.56v-1.15h-2.42v15.4h2.7v-12.25c.22-.12,2.07-1.27,3.94-1.27.92,0,1.59.29,2.01.7.8.83.76,2.23.76,4.29v8.53h2.67v-8.62c0-1.24,0-2.93-.26-3.6.35-.22,2.2-1.3,4.07-1.3.92,0,1.63.26,2.1.8.8.86.77,2.77.77,3.72v9h2.7v-8.94c0-2.48-.06-4.07-1.53-5.54-.48-.47-1.56-1.33-3.69-1.33ZM188.15,120.58h2.7v-15.4h-2.7v15.4ZM189.49,99.37c-.92,0-1.66.73-1.66,1.65s.73,1.66,1.66,1.66,1.65-.73,1.65-1.66-.73-1.65-1.65-1.65ZM179.53,104.77c-2.32,0-4.07.98-5.34,1.78-.7-.95-1.84-1.78-3.78-1.78-2.42,0-4.52,1.43-4.71,1.56v-1.15h-2.42v15.4h2.7v-12.25c.23-.12,2.07-1.27,3.94-1.27.92,0,1.59.29,2.01.7.8.83.77,2.23.77,4.29v8.53h2.67v-8.62c0-1.24,0-2.93-.26-3.6.35-.22,2.2-1.3,4.07-1.3.92,0,1.62.26,2.1.8.79.86.76,2.77.76,3.72v9h2.7v-8.94c0-2.48-.06-4.07-1.53-5.54-.47-.47-1.56-1.33-3.69-1.33ZM197.12,108.97c0-1.15.96-2.07,2.83-2.07s3.47.92,3.66,1.05l1.01-1.81c-.16-.13-1.87-1.37-4.86-1.37-3.15,0-5.37,1.75-5.37,4.36,0,4.9,7.6,4.2,7.6,7.35,0,1.37-1.3,2.29-2.96,2.29-2.22,0-3.78-.98-4.1-1.18l-1.02,1.88c.2.16,2.23,1.52,5.28,1.52s5.63-1.71,5.63-4.71c0-4.9-7.7-4.36-7.7-7.31ZM221.33,120.58h2.7v-15.4h-2.7v15.4ZM210.23,108.97c0-1.15.95-2.07,2.83-2.07s3.46.92,3.66,1.05l1.01-1.81c-.16-.13-1.87-1.37-4.86-1.37-3.15,0-5.37,1.75-5.37,4.36,0,4.9,7.6,4.2,7.6,7.35,0,1.37-1.3,2.29-2.96,2.29-2.22,0-3.79-.98-4.1-1.18l-1.02,1.88c.19.16,2.23,1.52,5.28,1.52s5.62-1.71,5.62-4.71c0-4.9-7.69-4.36-7.69-7.31Z"/><path class="cls-2" d="M114.29,93.94c4.74,0,7.48-2.36,7.73-2.61l-1.85-2.98c-.35.19-2.58,1.73-5.34,1.73-3.99,0-6.53-2.86-6.53-7.23s2.95-7.13,6.75-7.13c3.05,0,4.74,1.45,4.99,1.6l1.92-2.92c-.22-.22-2.39-2.42-7.1-2.42-6.25,0-11.03,4.18-11.03,11.16s4.56,10.81,10.46,10.81ZM123.23,88.82c0,2.93,1.91,4.97,4.99,4.97,2.45,0,4.08-1.25,4.37-1.45v1.1h3.67v-9.27c0-2.01.03-3.62-1.26-4.9-1.51-1.51-3.74-1.73-5.06-1.73-3.55,0-5.66,1.47-5.87,1.66l1.41,2.7c.22-.13,2.08-1.13,4.12-1.13,1.16,0,1.85.28,2.2.63.44.44.47.88.47,1.82h-.44c-1.88,0-8.6.1-8.6,5.59ZM132.28,89.64c-.19.09-1.22.94-2.95.94-1.03,0-2.39-.44-2.39-2.04,0-1.95,1.95-2.42,4.68-2.42h.66v3.52ZM142.51,83.29c.47-.69,1.76-2.23,4.34-2.23.22,0,.82.06.94.1l.97-3.21c-.1-.03-.66-.41-1.76-.41-3.08,0-4.99,2.17-5.12,2.39v-1.95h-3.61v15.46h4.24v-10.15ZM155.85,77.54c-4.4,0-7.41,3.52-7.41,8.26,0,4.49,2.67,8.07,7.7,8.07,3.42,0,5.78-1.6,5.87-1.69l-1.38-2.7c-.66.31-2.17,1.1-4.12,1.1-3.08,0-4.02-2.36-3.96-3.49h10.18c0-.22.06-.66.06-1.32,0-5.03-2.42-8.23-6.94-8.23ZM152.52,84.05c.31-1.92,1.51-3.36,3.42-3.36,2.61,0,2.92,2.51,2.92,3.36h-6.35ZM193.93,93.88c2.2,0,4.11-1.41,4.36-1.6v1.17h3.61v-15.46h-4.24v11.31c-.25.19-1.51.97-2.86.97-1,0-1.47-.38-1.66-.56-.57-.57-.66-1.57-.66-3.59v-8.14h-4.24v8.33c0,2.01-.06,4.33,1.67,6.06,1.01,1.01,2.39,1.51,4.02,1.51ZM212.95,92.34v1.1h3.67v-9.27c0-2.01.04-3.62-1.25-4.9-1.51-1.51-3.74-1.73-5.06-1.73-3.55,0-5.66,1.47-5.87,1.66l1.41,2.7c.22-.13,2.07-1.13,4.12-1.13,1.17,0,1.86.28,2.2.63.44.44.47.88.47,1.82h-.44c-1.88,0-8.6.1-8.6,5.59,0,2.93,1.91,4.97,5,4.97,2.45,0,4.08-1.25,4.36-1.45ZM207.29,88.54c0-1.95,1.95-2.42,4.68-2.42h.66v3.52c-.19.09-1.22.94-2.95.94-1.04,0-2.39-.44-2.39-2.04ZM222.94,70.69h-4.24v22.75h4.24v-22.75ZM227.27,76.06c1.35,0,2.42-1.06,2.42-2.42s-1.07-2.42-2.42-2.42-2.42,1.07-2.42,2.42,1.07,2.42,2.42,2.42ZM229.4,77.98h-4.24v15.46h4.24v-15.46ZM240.37,90.33c-1.86,0-1.95-1.42-1.95-2.64v-6.19h4.4v-3.52h-4.4v-4.3h-4.24v4.3h-2.67v3.52h2.67v6.03c0,2.17,0,3.64,1.32,4.96,1.03,1.04,2.6,1.38,3.99,1.38,2.29,0,3.77-.91,3.89-1l-1.06-2.92c-.28.1-.97.38-1.95.38ZM247.08,97.3c-1.23,0-2.17-.44-2.39-.53l-1.26,3.01c.13.06,1.6.98,3.87.98,2.54,0,3.86-.94,4.52-1.6,1.1-1.1,1.79-2.51,2.98-5.56l6.12-15.62h-4.18l-3.87,10.84-4.15-10.84h-4.49l6.47,15.46c-.25.69-.79,2.32-1.54,3.08-.5.5-1.16.79-2.1.79ZM186.37,82.82c0-6.3-4.04-10.84-10.25-10.84s-10.24,4.38-10.24,10.84,4.07,11.09,10.07,11.19h0s.24,0,.26,0c2.91.07,4.93,1.04,6.21,2.63.44-.29,3.6-3.01,3.6-3.01,0,0-1.09-1.31-3.63-1.65,2.47-1.92,3.98-5.11,3.98-9.16ZM176.22,90.26c-3.31,0-5.83-2.74-5.83-7.15s2.2-7.47,5.58-7.47,5.89,2.99,5.89,7.16c0,3.37-1.29,7.47-5.64,7.47Z"/><path class="cls-2" d="M82.1,122.96c8.31-5.89,13.75-15.59,13.75-26.55,0-17.96-14.56-32.52-32.51-32.52s-32.51,14.56-32.51,32.52,14.55,32.52,32.51,32.52h.93c8.65.15,14.59,3.02,18.39,7.68,1.27-.84,10.49-8.77,10.49-8.77,0,0-3.3-3.99-11.03-4.88ZM62.61,120.61c8.24-1.68,14.98-7.56,17.94-15.32-.02-.01-.04,0-.06.01-3.22,6.21-9.69,10.45-17.16,10.45-10.68,0-19.33-8.66-19.33-19.34s8.65-19.34,19.33-19.34c7.47,0,13.94,4.25,17.16,10.45.02.02.04.03.06,0-2.96-7.77-9.7-13.64-17.94-15.32.27,0,.54-.02.81-.02,13.24,0,23.97,10.84,23.97,24.21s-10.73,24.22-23.97,24.22c-.27,0-.54-.01-.81-.02Z"/><path class="cls-2" d="M40.54,45.73l-1.42-3.78c-.62-1.63-1.1-3.35-3.1-3.55-.5-.05-1.3-.08-2.55-.08h-.47v7.4h-2v-16.68h4.27c2.3,0,3.27.18,4.2.73,1.12.68,1.77,2,1.77,3.6,0,2.38-1.12,3.73-3.5,4.23,1.7.48,2.27,1.23,3.5,4.45l1.4,3.68h-2.1ZM38.09,31.02c-.57-.38-1.25-.48-2.95-.48h-2.15v6.2h1.05c2.4,0,5.2.1,5.2-3.15,0-1.18-.4-2.08-1.15-2.58Z"/><path class="cls-2" d="M45.84,40v.43c0,2.6,1.1,3.88,3.07,3.88,1.12,0,2.1-.23,4.05-.88l.35,1.15c-2.45,1.13-3.47,1.43-4.87,1.43-2.8,0-4.6-2.18-4.6-5.7,0-4.1,1.9-6.63,5.02-6.63s4.52,1.9,4.52,5.7v.63h-7.55ZM49.06,35.15c-1.77,0-2.92,1.25-3.12,3.63l5.55-.2c0-2.38-.8-3.43-2.42-3.43Z"/><path class="cls-2" d="M63.66,50.03c-.8.65-1.97.98-3.35.98-1.02,0-2.1-.15-4.05-.55l.17-1.2c1.42.17,2.25.23,3.1.23,1.7,0,2.8-.4,3.25-1.23.35-.6.42-1.23.42-3.13v-.68c-1.42.83-2.77,1.33-3.85,1.33-2.55,0-4.02-2.33-4.02-6s1.75-6.1,4.3-6.1c1.27,0,2.5.7,3.62,1.3v-1.03h1.8v11c0,3.23-.25,4.15-1.4,5.08ZM63.21,36.17c-1.72-.65-2.25-.8-3.1-.8-1.77,0-2.77,1.53-2.77,4.25,0,3.05.87,4.48,2.65,4.48.77,0,1.5-.18,3.22-.85v-7.08Z"/><path class="cls-2" d="M75.83,45.73v-.95c-1.7.8-3.02,1.23-4.07,1.23-1.2,0-2.1-.4-2.65-1.15-.5-.68-.6-1.23-.6-3.08v-7.83h1.85v7.23c0,1.75-.1,3.13,1.97,3.13,1,0,2.22-.23,3.45-.68v-9.68h1.85v11.78h-1.8Z"/><path class="cls-2" d="M81.24,45.73v-17.76h1.85v17.76h-1.85Z"/><path class="cls-2" d="M92.58,45.73v-1.03c-1.5.85-2.55,1.3-3.62,1.3-1.52,0-3.02-1.18-3.02-3.68,0-1.9.82-3.03,2.22-3.38.9-.23,2.07-.3,4.37-.3v-.48c0-1.95.1-2.83-2.2-2.83-.9,0-2.05.12-3.5.4l-.2-1.28c1.85-.55,3.25-.8,4.5-.8s2.12.32,2.62.98c.5.63.62,1.35.62,3.5v7.58h-1.8ZM92.53,39.85c-3.8.27-4.67.83-4.67,2.53,0,1.33.62,2,1.6,2,1.07,0,3.07-.88,3.07-.88v-3.65Z"/><path class="cls-2" d="M100.53,45.98c-.98,0-1.7-.4-2.07-1.15-.22-.45-.27-.95-.27-2.33v-7.2h-2v-1.03l2-.23v-3.23h1.85v3.13h3.3v1.35h-3.3v6.35c0,2.05,0,2.08.17,2.38.18.28.48.4.92.4.62,0,1.25-.12,2.25-.43l.35,1.15c-1.37.6-2.25.83-3.2.83Z"/><path class="cls-2" d="M106.93,40v.43c0,2.6,1.1,3.88,3.07,3.88,1.12,0,2.1-.23,4.05-.88l.35,1.15c-2.45,1.13-3.47,1.43-4.87,1.43-2.8,0-4.6-2.18-4.6-5.7,0-4.1,1.9-6.63,5.02-6.63s4.52,1.9,4.52,5.7v.63h-7.55ZM110.15,35.15c-1.77,0-2.92,1.25-3.12,3.63l5.55-.2c0-2.38-.8-3.43-2.42-3.43Z"/><path class="cls-2" d="M124.43,45.73v-1.05c-1.5.85-2.9,1.33-3.97,1.33-2.55,0-4.02-2.3-4.02-6.13s1.75-6.2,4.3-6.2c1.27,0,2.52.67,3.65,1.3v-7h1.85v17.76h-1.8ZM124.38,36.17c-1.77-.65-2.32-.8-3.17-.8-1.77,0-2.77,1.53-2.77,4.35,0,3.18.87,4.6,2.65,4.6.8,0,1.6-.18,3.3-.85v-7.3Z"/><path class="cls-2" d="M141.58,46c-1.32,0-2.57-.73-3.7-1.33v1.05h-1.8v-17.76h1.85v7c1.55-.85,2.85-1.3,3.92-1.3,2.55,0,4.02,2.3,4.02,6.13s-1.75,6.2-4.3,6.2ZM141.23,35.35c-.77,0-1.52.18-3.3.83v7.3c1.8.68,2.32.83,3.17.83,1.77,0,2.77-1.53,2.77-4.35,0-3.18-.87-4.6-2.65-4.6Z"/><path class="cls-2" d="M152.65,47.63c-1.02,2.7-1.67,3.3-3.7,3.3-.42,0-.77-.03-1.35-.1l.15-1.28c.35.03.55.05.75.05,1.67,0,1.75-.1,2.8-2.8l.47-1.23-4.7-11.63h2.07l3.6,9.28,3.3-9.28h1.77l-5.17,13.68Z"/></svg>