<svg xmlns="http://www.w3.org/2000/svg" width="133" height="63" viewBox="0 0 133 63" fill="none">
<path d="M29.887 56.9749C22.9269 56.6023 16.4378 53.6987 11.5024 48.7071C6.2436 43.392 3.36813 36.3405 3.41735 28.8601C3.45953 21.3093 6.51075 14.4406 11.4532 9.40676C7.38253 14.0961 4.99217 20.1704 4.95702 26.6103C4.91484 33.697 7.64266 40.3619 12.6273 45.3887C17.2674 50.0639 23.3557 52.7847 29.8941 53.1292V46.9635C17.7806 46.162 8.19103 36.01 8.26134 23.7067C8.31055 14.9327 13.0913 6.01105 20.9373 2.55909C20.9373 2.55909 25.8094 0.478072 29.8941 0.260127V0H29.88C13.2178 0.794443 0.0919382 14.778 0.000542153 31.4754C-0.0978844 48.2993 13.2178 62.2056 29.887 63V56.9749Z" fill="#0065BD"/>
<path d="M29.887 56.9749C22.9269 56.6023 16.4378 53.6987 11.5024 48.7071C6.2436 43.392 3.36813 36.3405 3.41735 28.8601C3.45953 21.3093 6.51075 14.4406 11.4532 9.40676C7.38253 14.0961 4.99217 20.1704 4.95702 26.6103C4.91484 33.697 7.64266 40.3619 12.6273 45.3887C17.2674 50.0639 23.3557 52.7847 29.8941 53.1292V46.9635C17.7806 46.162 8.19103 36.01 8.26134 23.7067C8.31055 14.9327 13.0913 6.01105 20.9373 2.55909C20.9373 2.55909 25.8094 0.478072 29.8941 0.260127V0H29.88C13.2178 0.794443 0.0919382 14.778 0.000542153 31.4754C-0.0978844 48.2993 13.2178 62.2056 29.887 63V56.9749Z" fill="#0065BD"/>
<path d="M23.1096 23.5872C21.8231 22.7365 20.6209 22.378 19.7702 22.378C18.8492 22.378 18.2586 22.8138 18.2586 23.4325C18.2586 23.9457 19.032 24.5644 21.0567 25.7455C22.955 27.004 23.651 27.7984 23.651 28.9796C23.651 31.0114 22.034 32.3682 19.8545 32.3682C18.4414 32.3682 17.3376 32.087 15.8472 31.3137V28.846C17.3376 29.8724 18.6945 30.3646 19.6225 30.3646C20.5505 30.3153 21.3169 29.8795 21.3169 29.0569C21.3169 27.461 15.9245 26.6173 15.9245 23.5099C15.9245 21.5624 17.415 20.3743 19.728 20.3743C20.8036 20.3743 21.9074 20.6836 23.1167 21.3234V23.5872H23.1096Z" fill="#0065BD"/>
<path d="M28.291 32.1362H26.0061V14.6233H28.291V32.1362ZM31.3 26.2587L37.2548 32.1362H34.1755L28.3965 26.2587L33.5076 20.6132H36.2284L31.3 26.2587Z" fill="#0065BD"/>
<path d="M39.2868 18.4762C38.5415 18.4762 37.9229 17.8575 37.9229 17.1193C37.9229 16.3741 38.5415 15.7554 39.2868 15.7554C40.032 15.7554 40.6507 16.3741 40.6507 17.1193C40.6436 17.8575 40.025 18.4762 39.2868 18.4762ZM40.4116 32.1364H38.1267V20.6064H40.4116V32.1364Z" fill="#0065BD"/>
<path d="M45.783 32.1362H43.498V14.6233H45.783V32.1362Z" fill="#0065BD"/>
<path d="M51.1472 32.1362H48.8623V14.6233H51.1472V32.1362Z" fill="#0065BD"/>
<path d="M60.8772 23.5872C59.5906 22.7365 58.3884 22.378 57.5377 22.378C56.6168 22.378 56.0262 22.8138 56.0262 23.4325C56.0262 23.9457 56.7995 24.5644 58.8243 25.7455C60.7225 27.004 61.4186 27.7984 61.4186 28.9796C61.4186 31.0114 59.8016 32.3682 57.6221 32.3682C56.209 32.3682 55.1052 32.087 53.6147 31.3137V28.846C55.1052 29.8724 56.4691 30.3646 57.3901 30.3646C58.3111 30.3153 59.0844 29.8795 59.0844 29.0569C59.0844 27.461 53.6921 26.6173 53.6921 23.5099C53.6921 21.5624 55.1825 20.3743 57.4956 20.3743C58.5712 20.3743 59.675 20.6836 60.8842 21.3234V23.5872H60.8772Z" fill="#0065BD"/>
<path d="M70.7129 16.0365C69.7356 15.6991 69.2716 15.6006 68.6318 15.6006C66.7055 15.6006 65.8337 16.7326 65.8337 19.1721V20.6134H68.0694V21.6117H65.8337V32.1363H64.6034V21.6117H62.4731V20.6134H64.6034V18.7151C64.6034 15.7342 66.6844 14.3984 68.6107 14.3984C69.3068 14.3984 69.82 14.525 70.7199 14.8835V16.0365H70.7129Z" fill="#0065BD"/>
<path d="M74.7979 32.3682C71.4373 32.3682 68.9204 29.8021 68.9204 26.3853C68.9204 22.9474 71.4373 20.3743 74.7979 20.3743C78.1584 20.3743 80.6543 22.9404 80.6543 26.3853C80.6543 29.8021 78.1655 32.3682 74.7979 32.3682ZM74.7979 21.5835C72.1755 21.5835 70.2281 23.6153 70.2281 26.3853C70.2281 29.1342 72.1825 31.159 74.7979 31.159C77.3921 31.159 79.3396 29.1272 79.3396 26.3853C79.3466 23.6364 77.3921 21.5835 74.7979 21.5835Z" fill="#0065BD"/>
<path d="M90.363 22.8912C89.2592 21.8928 88.6967 21.5835 88.0499 21.5835C86.918 21.5835 85.6104 22.7646 84.3519 24.8949V32.1362H83.1216V20.6063H84.3519V23.6364H84.4011C85.765 21.4781 87.15 20.3743 88.4296 20.3743C89.224 20.3743 89.9482 20.7328 91.073 21.7382L90.363 22.8912Z" fill="#0065BD"/>
<path d="M99.8891 23.6153C98.5815 22.7435 97.7097 22.4834 96.7043 22.4834C94.6233 22.4834 93.1891 24.0512 93.1891 26.3853C93.1891 28.7756 94.7288 30.2098 97.091 30.2098C98.0682 30.2098 98.9892 29.9497 100.149 29.4365V31.6933C99.3759 32.0518 97.9136 32.3612 96.7114 32.3612C93.2735 32.3612 90.855 29.9708 90.855 26.5821C90.855 22.7786 93.0625 20.3672 96.5567 20.3672C97.8925 20.3672 98.7924 20.6765 99.8962 21.1616V23.6153H99.8891Z" fill="#0065BD"/>
<path d="M111.342 31.4683C110.287 32.1643 109.851 32.3682 109.134 32.3682C108.136 32.3682 107.595 32.0096 107.391 31.1871C106.385 31.9815 105.338 32.3682 104.283 32.3682C102.589 32.3682 101.457 31.0324 101.457 29.5419C101.457 27.257 103.538 26.561 105.387 25.8931L107.419 25.176V24.5573C107.419 23.1161 106.723 22.5255 105.338 22.5255C104.079 22.5255 102.793 23.1161 101.689 24.4238V21.935C102.589 20.8804 103.847 20.3672 105.514 20.3672C107.848 20.3672 109.697 21.5483 109.697 24.1707V30.1044C109.697 30.5403 109.851 30.6949 110.133 30.6949C110.365 30.6949 110.829 30.4629 111.342 30.0763V31.4683ZM107.412 26.4345C105.457 27.1024 103.763 27.7703 103.763 29.1271C103.763 30.0763 104.459 30.7442 105.408 30.7442C106.125 30.7442 106.793 30.3856 107.412 29.795V26.4345Z" fill="#0065BD"/>
<path d="M115.553 20.6063V23.2497H115.603C116.756 21.2179 117.859 20.3743 118.942 20.3743C119.863 20.3743 120.742 20.8102 121.691 21.7101L120.482 23.6856C119.786 23.0177 118.893 22.5537 118.352 22.5537C116.784 22.5537 115.553 24.1215 115.553 26.0971V32.1292H113.269V20.5992H115.553V20.6063Z" fill="#0065BD"/>
<path d="M132.145 31.0043C130.76 31.9324 129.502 32.3682 127.547 32.3682C123.955 32.3682 121.951 29.4154 121.951 26.2306C121.951 22.7365 124.159 20.3743 127.344 20.3743C130.402 20.3743 132.349 22.4553 132.349 26.7157H124.236C124.595 29.0006 125.902 30.1818 128.117 30.1818C129.502 30.1818 130.81 29.6685 132.145 28.7968V31.0043ZM130.092 25.2042C130.015 23.4606 129.017 22.3569 127.4 22.3569C125.656 22.3569 124.602 23.3833 124.292 25.2042H130.092Z" fill="#0065BD"/>
</svg>