<?xml version="1.0" encoding="UTF-8"?>
<svg width="180" height="48" viewBox="0 0 180 48" fill="none" xmlns="http://www.w3.org/2000/svg">
  <path d="M12 24C12 18.477 16.477 14 22 14C27.523 14 32 18.477 32 24C32 29.523 27.523 34 22 34C16.477 34 12 29.523 12 24Z" fill="#6B21A8"/>
  <path d="M22 16C21.2044 16 20.4413 16.3161 19.8787 16.8787C19.3161 17.4413 19 18.2044 19 19V24C19 24.7956 19.3161 25.5587 19.8787 26.1213C20.4413 26.6839 21.2044 27 22 27C22.7956 27 23.5587 26.6839 24.1213 26.1213C24.6839 25.5587 25 24.7956 25 24V19C25 18.2044 24.6839 17.4413 24.1213 16.8787C23.5587 16.3161 22.7956 16 22 16Z" fill="white"/>
  <text x="40" y="30" font-family="Arial" font-size="24" font-weight="bold" fill="#1F2937">Tafara Care</text>
</svg> 